<?xml version="1.0" encoding="UTF-8"?> <svg xmlns="http://www.w3.org/2000/svg" width="526" height="101" viewBox="0 0 526 101" fill="none"><g clip-path="url(#clip0)"><path d="M161.76 78.9C157.347 80.8222 152.572 81.7704 147.76 81.68C143.2 81.7287 138.672 80.9214 134.41 79.3C126.384 76.2798 119.98 70.0501 116.74 62.11C114.994 57.8644 114.124 53.3101 114.18 48.72C114.116 44.0637 115 39.4431 116.78 35.14C118.42 31.2211 120.866 27.6912 123.96 24.78C127.076 21.9017 130.734 19.6718 134.72 18.22C143.219 15.1389 152.531 15.1389 161.03 18.22C165 19.589 168.56 21.9383 171.38 25.05L161.14 35.32C159.736 33.3843 157.811 31.8864 155.59 31C153.355 30.072 150.96 29.5929 148.54 29.59C146.042 29.5464 143.562 30.0267 141.26 31C139.114 31.9324 137.181 33.2935 135.58 35C133.969 36.7408 132.712 38.7788 131.88 41C130.978 43.4415 130.531 46.0274 130.56 48.63C130.53 51.2717 130.977 53.8972 131.88 56.38C132.696 58.6002 133.939 60.6388 135.54 62.38C137.109 64.0628 139.013 65.3981 141.13 66.3C143.388 67.2556 145.818 67.7356 148.27 67.71C150.991 67.7714 153.686 67.1672 156.12 65.95C158.244 64.8645 160.083 63.2958 161.49 61.37L172 71.37C169.17 74.5891 165.676 77.1578 161.76 78.9Z" fill="#051B27"></path><path d="M177 42.1C179.577 39.6382 182.644 37.7471 186 36.55C189.38 35.3286 192.947 34.7027 196.54 34.7C199.722 34.6224 202.894 35.0856 205.92 36.07C208.341 36.8862 210.492 38.349 212.14 40.3C213.822 42.4187 215.01 44.885 215.62 47.52C216.406 50.916 216.775 54.3949 216.72 57.88V80H203.52V75.32H203.25C202.047 77.2264 200.278 78.7089 198.19 79.56C195.867 80.5629 193.361 81.0704 190.83 81.05C188.985 81.042 187.148 80.8068 185.36 80.35C183.522 79.896 181.779 79.1208 180.21 78.06C178.62 76.9667 177.305 75.5186 176.37 73.83C175.312 71.8203 174.795 69.57 174.87 67.3C174.74 64.5071 175.669 61.768 177.47 59.63C179.317 57.6246 181.614 56.0859 184.17 55.14C187.103 54.0298 190.17 53.3102 193.29 53C196.543 52.6568 199.81 52.4832 203.08 52.48V51.8C203.217 49.9082 202.347 48.0845 200.79 47C199.11 45.9254 197.144 45.385 195.15 45.45C193.076 45.4408 191.026 45.8952 189.15 46.78C187.379 47.5988 185.743 48.6848 184.3 50L177 42.1ZM203.53 60.88H201.68C200.09 60.88 198.49 60.95 196.88 61.1C195.414 61.2198 193.965 61.5015 192.56 61.94C191.393 62.2917 190.322 62.9076 189.43 63.74C188.592 64.5606 188.142 65.6981 188.19 66.87C188.167 67.6188 188.369 68.3574 188.77 68.99C189.139 69.5653 189.635 70.0478 190.22 70.4C190.839 70.7624 191.516 71.0161 192.22 71.15C192.946 71.2896 193.682 71.3632 194.42 71.37C197.36 71.37 199.607 70.56 201.16 68.94C202.789 67.156 203.632 64.7921 203.5 62.38L203.53 60.88Z" fill="#051B27"></path><path d="M249.88 49.07C248.656 47.9196 247.259 46.9681 245.74 46.25C244.183 45.4907 242.473 45.0974 240.74 45.1C239.451 45.09 238.175 45.3595 237 45.89C235.902 46.3438 235.212 47.4435 235.28 48.63C235.259 49.8307 236.027 50.9037 237.17 51.27C239.156 52.0039 241.195 52.5824 243.27 53C244.972 53.3741 246.644 53.8755 248.27 54.5C249.903 55.1223 251.433 55.9852 252.81 57.06C254.156 58.1113 255.267 59.4331 256.07 60.94C256.931 62.6286 257.357 64.5052 257.31 66.4C257.387 68.8416 256.807 71.259 255.63 73.4C254.556 75.2611 253.064 76.8463 251.27 78.03C249.432 79.2181 247.402 80.0807 245.27 80.58C243.076 81.107 240.827 81.3755 238.57 81.3805C234.979 81.3948 231.41 80.8274 228 79.7C224.787 78.6826 221.846 76.949 219.4 74.63L227.51 66.08C228.869 67.5342 230.482 68.7272 232.27 69.6C234.13 70.5401 236.187 71.0235 238.27 71.01C239.479 71.0042 240.669 70.7201 241.75 70.18C242.9 69.6443 243.589 68.4431 243.47 67.18C243.477 65.8298 242.625 64.6244 241.35 64.18C239.212 63.3137 237 62.6442 234.74 62.18C233.182 61.8216 231.651 61.3504 230.16 60.77C228.672 60.2071 227.287 59.403 226.06 58.39C224.817 57.3756 223.796 56.1162 223.06 54.69C222.253 53.0464 221.858 51.2306 221.91 49.4C221.84 47.0428 222.417 44.7114 223.58 42.66C224.665 40.844 226.14 39.293 227.9 38.12C229.695 36.9319 231.675 36.053 233.76 35.52C235.849 34.9678 238 34.6855 240.16 34.68C243.438 34.6819 246.695 35.2017 249.81 36.22C252.791 37.1438 255.525 38.7262 257.81 40.85L249.88 49.07Z" fill="#051B27"></path><path d="M305.5 58.59V60.35C305.502 60.9079 305.472 61.4655 305.41 62.02H273.59C273.694 63.2066 274.07 64.3532 274.69 65.37C275.314 66.3778 276.122 67.2597 277.07 67.97C279.09 69.4855 281.546 70.3064 284.07 70.31C286.092 70.3629 288.096 69.9128 289.9 69C291.423 68.2019 292.748 67.0746 293.78 65.7L303.78 72.04C301.735 75.0368 298.919 77.4272 295.63 78.96C291.94 80.6463 287.917 81.477 283.86 81.39C280.682 81.4073 277.523 80.8831 274.52 79.84C271.676 78.874 269.054 77.3472 266.81 75.35C264.568 73.3345 262.793 70.8533 261.61 68.08C260.293 64.9557 259.646 61.59 259.71 58.2C259.665 54.8619 260.294 51.5491 261.56 48.46C263.865 42.8538 268.402 38.4618 274.08 36.34C277.063 35.2094 280.231 34.6431 283.42 34.67C286.468 34.6345 289.493 35.1879 292.33 36.3C294.982 37.3404 297.372 38.9519 299.33 41.02C301.336 43.1827 302.881 45.7311 303.87 48.51C305.006 51.7472 305.558 55.16 305.5 58.59ZM292.19 53C292.236 50.832 291.465 48.7259 290.03 47.1C288.59 45.4533 286.43 44.63 283.55 44.63C282.228 44.615 280.914 44.8385 279.67 45.29C278.545 45.7063 277.502 46.3191 276.59 47.1C275.717 47.8515 274.997 48.765 274.47 49.79C273.952 50.785 273.652 51.8795 273.59 53H292.19Z" fill="#051B27"></path><path d="M341.001 50.3C340.111 49.1874 338.96 48.3115 337.651 47.75C336.301 47.1042 334.826 46.7629 333.331 46.75C331.897 46.7248 330.478 47.0401 329.191 47.67C327.968 48.2769 326.882 49.1277 326.001 50.17C325.126 51.2311 324.449 52.4402 324.001 53.74C323.498 55.1243 323.247 56.5874 323.261 58.06C323.248 59.5292 323.485 60.9899 323.961 62.38C324.395 63.7096 325.088 64.9399 326.001 66C327.904 68.1589 330.663 69.3668 333.541 69.3C335.033 69.2939 336.511 69.0125 337.901 68.47C339.251 67.9733 340.449 67.1362 341.381 66.04L349.381 75.82C347.365 77.7054 344.957 79.1225 342.331 79.97C339.38 80.9822 336.28 81.4893 333.161 81.47C329.86 81.497 326.58 80.9593 323.461 79.88C320.56 78.8853 317.892 77.3099 315.621 75.25C313.383 73.1882 311.602 70.6812 310.391 67.89C307.857 61.6439 307.857 54.6562 310.391 48.41C311.599 45.6001 313.384 43.0755 315.631 41C317.91 38.9416 320.575 37.3545 323.471 36.33C326.557 35.2279 329.813 34.6762 333.091 34.7C334.671 34.7017 336.247 34.849 337.801 35.14C339.328 35.4231 340.833 35.8209 342.301 36.33C343.696 36.8018 345.037 37.422 346.301 38.18C347.439 38.8602 348.49 39.6762 349.431 40.61L341.001 50.3Z" fill="#051B27"></path><path d="M382.45 80V56.21C382.454 55.028 382.364 53.8476 382.18 52.68C382.039 51.6259 381.699 50.6081 381.18 49.68C380.692 48.8556 380.004 48.1677 379.18 47.68C378.203 47.1649 377.102 46.9296 376 47C373.735 46.8809 371.557 47.8875 370.18 49.69C368.793 51.6268 368.09 53.9696 368.18 56.35V80H353.71V13.37H368.17V41.66H368.34C369.523 39.742 371.157 38.1423 373.1 37C375.472 35.5424 378.217 34.8059 381 34.88C383.601 34.7908 386.184 35.3329 388.53 36.46C390.461 37.4421 392.149 38.8428 393.47 40.56C394.754 42.2868 395.682 44.2515 396.2 46.34C396.755 48.469 397.037 50.6599 397.04 52.86V80H382.45Z" fill="#051B27"></path><path d="M446 58.59V60.35C446 60.94 446 61.5 445.91 62.02H414.09C414.185 63.2084 414.562 64.3571 415.19 65.37C415.814 66.3778 416.622 67.2597 417.57 67.97C419.59 69.4855 422.046 70.3064 424.57 70.31C426.583 70.3718 428.58 69.9319 430.38 69.03C431.905 68.2347 433.231 67.1069 434.26 65.73L444.31 72.07C442.262 75.0645 439.447 77.4543 436.16 78.99C432.47 80.674 428.447 81.5046 424.391 81.42C421.212 81.4373 418.053 80.9131 415.05 79.87C412.204 78.902 409.579 77.3755 407.33 75.38C405.096 73.3579 403.322 70.8784 402.13 68.11C400.822 64.9835 400.178 61.6188 400.24 58.23C400.195 54.8919 400.825 51.5791 402.09 48.49C403.237 45.7092 404.938 43.1912 407.09 41.09C409.253 39.0348 411.802 37.4304 414.59 36.37C417.595 35.2299 420.787 34.6634 424 34.7C427.045 34.6635 430.067 35.217 432.9 36.33C435.551 37.3715 437.941 38.9829 439.9 41.05C441.903 43.2132 443.445 45.7617 444.43 48.54C445.546 51.7702 446.078 55.1734 446 58.59ZM432.69 53C432.736 50.832 431.965 48.7259 430.53 47.1C429.09 45.4533 426.93 44.63 424.05 44.63C422.728 44.615 421.414 44.8385 420.17 45.29C419.042 45.7062 417.996 46.319 417.08 47.1C416.218 47.8635 415.511 48.7872 415 49.82C414.482 50.815 414.182 51.9095 414.12 53.03L432.69 53Z" fill="#051B27"></path><path d="M497.47 80H479.58L465.21 58.94H465V80H450.4V13.37H465V53.92H465.26L479.26 36.11H496.81L479.84 55.94L497.47 80Z" fill="#051B27"></path><path d="M98 -0.119995C84 6.38 53.5 47.29 53.5 47.29C53.5 47.29 46.87 36.87 38 30.29L30 44.27C38.55 46.27 52.08 69.27 52.08 69.27L52.15 69.19C50.97 69.31 89.59 21.52 104.64 13.79L98 -0.119995Z" fill="#051B27"></path><path d="M80.3803 41.09C80.9083 43.1841 81.1439 45.3413 81.0803 47.5C81.1118 61.3048 71.7186 73.349 58.3221 76.6813C44.9255 80.0137 30.9843 73.7738 24.5445 61.5631C18.1048 49.3523 20.8292 34.3233 31.1453 25.1499C41.4614 15.9766 56.7059 15.0274 68.0803 22.85C71.2603 19.13 74.6203 15.34 77.9503 11.85C61.3975 -0.587773 38.464 -0.00777721 22.561 13.2508C6.65811 26.5094 1.96235 48.9646 11.2198 67.4847C20.4772 86.0048 41.2566 95.7259 61.4063 90.9632C81.5561 86.2006 95.7842 68.2049 95.7703 47.5C95.8825 41.1932 94.5412 34.9451 91.8503 29.24C88.1803 32.8 84.1903 37 80.3803 41.09Z" fill="#051B27"></path><path d="M507.091 45.19H505.901V37.74H503.181V36.74H509.821V37.74H507.091V45.19Z" fill="#051B27"></path><path d="M515.331 43.23L517.841 36.7H519.681V45.19H518.501V38.09L515.681 45.19H514.931L512.121 38.09V45.19H510.971V36.7H512.821L515.331 43.23Z" fill="#051B27"></path></g><defs><clipPath id="clip0"><rect width="526" height="101" fill="white"></rect></clipPath></defs></svg> 